<?xml version="1.0" encoding="UTF-8"?>
<svg id="Livello_1" xmlns="http://www.w3.org/2000/svg" version="1.1" viewBox="0 0 322.4 1121.5">
  <!-- Generator: Adobe Illustrator 29.0.1, SVG Export Plug-In . SVG Version: 2.1.0 Build 192)  -->
  <defs>
    <style>
      .st0 {
        fill: #e30613;
      }
    </style>
  </defs>
  <g id="Livello_21">
    <g>
      <g>
        <path class="st0" d="M39.1,1039.3c0,3-4,5.1-7.9,5.1H10.1v-53.7l1-1.1H3l1,1.1v54.9l-1,1.1h36v-7.2h0v-.2Z"/>
        <path class="st0" d="M82.3,1008.3l1-3.3,3.5-12.9,5.3,16.2h-9.8ZM111,1045.5l-18.5-55.7.6-.7h-7.5l-15.7,56.6-1.2,1.1h3.8l-.6-1,8.7-31.4,1.5-5.4h10.2l12.1,36.7-.6,1h8.4l-1.2-1.1h0Z"/>
        <path class="st0" d="M292.2,1005l3.5-12.9,5.3,16.2h-9.8l1-3.3h0ZM299.1,988.9h-4.4l-15.7,56.6-1.2,1.1h3.8l-.6-1,8.7-31.4,1.5-5.4h10.2l12.1,36.7-.6,1h8.4l-1.2-1.1-18.5-55.7.6-.7h-3.2.1Z"/>
        <path class="st0" d="M292.2,1078.8l3.5-12.9,5.3,16.2h-9.8l1-3.3h0ZM299.1,1062.8h-4.4l-15.7,56.6-1.2,1.1h3.8l-.6-1,8.7-31.3,1.5-5.4h10.2l12.1,36.7-.6,1h8.4l-1.2-1.1-18.5-55.7.6-.7h-3.2v-.2Z"/>
        <path class="st0" d="M178.9,989l.2.3h-.5l.2-.3h.1ZM178.9,988.9h-2.4l1,1.1v36.4c0,13.1-8.2,19.8-16.6,20.3-8.2-.4-15.6-4.7-15.6-20.3v-36.2l1-1.1h-7.7l1,1.1v36.8c0,17,11.3,20.3,19.5,20.5h4c.4,0,1,0,1.5,0h0c7.7-1,15.9-7.2,15.9-20.7v-36.4l1-1.1h-2.3v-.2h-.3Z"/>
        <path class="st0" d="M225.7,990c13,0,19.2,4,19.2,13.6s-6.3,14.2-19.2,14.1h-6.9v-27.7h7-.1ZM251.1,1045.6l-13.3-28.3c8.6-2,13.3-6.9,13.3-13.7,0-10-8.3-14.4-23.2-14.4h-16.1l1,1.1v55.5l-1,1.1h7.7l-1-1.1v-26.9h13.6l13.1,26.9-.4,1.2h7.7l-1.5-1.3h.1,0Z"/>
        <path class="st0" d="M21.8,1120.4c8.2-.4,18.6-4.5,18.6-15.6s-10-14.5-19.3-19.2c-7.4-4-14.4-8.3-14.5-16.2,0-8,6.4-10.7,12-10.8.6,0,1.3,0,2,.2h0c4.3.9,8.4,4.3,9.4,9.2.2,1.5.1,3.1-.2,4.8l5.4-2.1c-1.7-7.3-7.8-12.6-15.2-12.6h-1.4c-9.6,0-16.9,5.4-16.9,13.3s10.1,14,19.3,18.7c7.3,4,14,8.4,14,16.9s-7,12.5-13.5,12.9h-1.8c-8.2-.2-13.6-6.2-14.7-13.9,0-1.1-.2-2.1-.2-3.2l-3.6,4.6c2.2,5.6,5.7,13.2,17.8,13.2s.4,0,.6,0h2.2"/>
        <path class="st0" d="M160.9,1120.4c8.2-.4,18.6-4.5,18.6-15.6s-10-14.5-19.3-19.2c-7.4-4-14.4-8.3-14.5-16.2,0-8,6.4-10.7,12-10.8.6,0,1.3,0,2,.2h0c4.3.9,8.4,4.3,9.4,9.2.2,1.5.1,3.1-.2,4.8l5.4-2.1c-1.7-7.3-7.8-12.6-15.2-12.6h-1.4c-9.6,0-16.9,5.4-16.9,13.3s10.1,14,19.3,18.7c7.3,4,14,8.4,14,16.9s-7,12.5-13.5,12.9h-1.8c-8.2-.2-13.6-6.2-14.7-13.9-.1-1.1-.2-2.1-.2-3.2l-3.6,4.6c2.2,5.6,5.7,13.2,17.8,13.2s.4,0,.6,0h2.2"/>
        <path class="st0" d="M233.3,1120.4c8.2-.4,18.6-4.5,18.6-15.6s-10-14.5-19.3-19.2c-7.4-4-14.4-8.3-14.5-16.2,0-8,6.4-10.7,12-10.8.6,0,1.3,0,2,.2h0c4.3.9,8.4,4.3,9.4,9.2.2,1.5.1,3.1-.2,4.8l5.4-2.1c-1.7-7.3-7.8-12.6-15.2-12.6h-1.4c-9.6,0-16.9,5.4-16.9,13.3s10.1,14,19.3,18.7c7.3,4,14,8.4,14,16.9s-7,12.5-13.5,12.9h-1.8c-8.2-.2-13.6-6.2-14.7-13.9-.1-1.1-.2-2.1-.2-3.2l-3.6,4.6c2.2,5.6,5.7,13.2,17.8,13.2s.4,0,.6,0h2.2"/>
        <path class="st0" d="M78.9,1061.9h23c4,0,8.3,2.2,8.3,5.4v-8.1h-38.2l1,1.2v58.8l-1,1.2h38.2v-7.7c0,3.2-4.3,5.4-8.3,5.4h-23v-17.4h16.1v-.6h-16.1v-38.2h0Z"/>
      </g>
      <path class="st0" d="M62.1,708.5c27.6,22.2,43.5,24.1,71.3,32.8,27.9,8.7,79.8,16.8,103.7,32.1,23.8,15.4,28.6,28.7,28.6,28.7h28.8s-14.5-41.6-55-58-104.6-25.7-142.1-43.6c-37.5-17.9-39.5-45.7-39.5-70.9V0h-25.3v276.1h0v363.7c0,9.7,1.7,46.6,29.3,68.9"/>
      <path class="st0" d="M168.6,554c45.9,3.1,75.3,18.3,89.1,55.4,0,0,8.8,22,8.8,52.6h25.3s2.3-43.1-20.6-83.3c-23-40.3-76.4-49.3-86.7-50.6,0,0-27.6-4.1-60.7,1.8,0,0-11.1,1.6-26.3,7.3l-8.1,3.4v31.7s33.3-21.5,79.1-18.4"/>
      <path class="st0" d="M298.2,840.7h-24.8c0,38.6-15.5,57.4-38.5,72.5s-82.4,26.1-138-5.1c-55.6-31.3-49-109.5-49-109.5h-25.4s-.2,6.2,0,13.5,2,29.6,4.5,40.2c2.4,10.5,9.5,43.4,45.3,71.3,35.8,28,90.5,33.1,117.9,30.1,27.4-3,57.8-10.5,85-41.6,27.2-30.9,23-71.5,23-71.5"/>
    </g>
  </g>
</svg>